<svg xmlns="http://www.w3.org/2000/svg" viewBox="0 0 200 200">
    <defs>
        <!-- 背景渐变 -->
        <radialGradient id="avatar-bg" cx="50%" cy="50%" r="50%">
            <stop offset="0%" stop-color="#7a4a3a" />
            <stop offset="85%" stop-color="#3b2d2a" />
            <stop offset="100%" stop-color="#1a1a1a" />
        </radialGradient>
        
        <!-- 金属质感 -->
        <linearGradient id="helmet-metal" x1="0.5" y1="0" x2="0.5" y2="1">
            <stop offset="0%" stop-color="#d0d0d0" />
            <stop offset="50%" stop-color="#9a9a9a" />
            <stop offset="100%" stop-color="#6a6a6a" />
        </linearGradient>
        <linearGradient id="metal-highlight" x1="0.5" y1="0" x2="0.5" y2="1">
            <stop offset="0%" stop-color="white" stop-opacity="0.8"/>
            <stop offset="100%" stop-color="white" stop-opacity="0" />
        </linearGradient>

        <!-- 骨质号角 -->
        <linearGradient id="horn-bone" x1="0" y1="0" x2="1" y2="1">
            <stop offset="0%" stop-color="#ffffff" />
            <stop offset="50%" stop-color="#e0d6c8" />
            <stop offset="100%" stop-color="#b8a898" />
        </linearGradient>

        <!-- 皮肤 -->
        <linearGradient id="skin-tone" x1="0.5" y1="0" x2="0.5" y2="1">
            <stop offset="0%" stop-color="#c58c6d" />
            <stop offset="100%" stop-color="#a66a4a" />
        </linearGradient>

        <!-- 胡须 -->
        <linearGradient id="beard-hair" x1="0.5" y1="0" x2="0.5" y2="1">
            <stop offset="0%" stop-color="#543c2c" />
            <stop offset="100%" stop-color="#3d2c1f" />
        </linearGradient>
        
        <!-- 阴影滤镜 -->
        <filter id="drop-shadow" x="-20%" y="-20%" width="140%" height="140%">
            <feGaussianBlur in="SourceAlpha" stdDeviation="3"/>
            <feOffset dx="2" dy="4"/>
            <feMerge>
                <feMergeNode/>
                <feMergeNode in="SourceGraphic"/>
            </feMerge>
        </filter>
    </defs>
    
    <!-- 背景 -->
    <circle cx="100" cy="100" r="100" fill="url(#avatar-bg)" />

    <!-- 主体 (应用阴影) -->
    <g transform="translate(0, 10)" filter="url(#drop-shadow)">
        <!-- 肩膀 & 皮草 -->
        <path d="M 10 120 C 30 180, 170 180, 190 120 L 175 190 L 25 190 Z" fill="#6b4a3b" />
        <path d="M 50 110 C 40 140, 60 150, 70 130 L 130 130 C 140 150, 160 140, 150 110 Z" fill="#9d8c7c"/>

        <!-- 脖子 -->
        <rect x="85" y="120" width="30" height="20" fill="#b57c5d"/>
        
        <!-- 脸部 -->
        <path d="M 65 65 C 60 100, 100 135, 135 65 L 100 60 Z" fill="url(#skin-tone)"/>

        <!-- 胡须 -->
        <path d="M 70 100 C 70 130, 100 140, 130 100 L 100 125 Z" fill="url(#beard-hair)"/>
        <path d="M 75 105 C 80 120, 100 125, 125 105 L 100 115 Z" fill="#684a34"/>

        <!-- 鼻子 -->
        <path d="M 95 85 L 100 105 L 105 85 Z" fill="#a66a4a"/>
        <path d="M 98 87 L 100 85 L 102 87" stroke="#d59c7d" stroke-width="1.5" fill="none"/>

        <!-- 眼睛 (在阴影中) -->
        <path d="M 70 80 C 80 95, 95 95, 100 85 L 95 80 Z" fill="#222" opacity="0.5"/>
        <path d="M 130 80 C 120 95, 105 95, 100 85 L 105 80 Z" fill="#222" opacity="0.5"/>
        <circle cx="85" cy="88" r="3" fill="#ff6a00"/>
        <circle cx="115" cy="88" r="3" fill="#ff6a00"/>
        <circle cx="86" cy="87" r="1" fill="white" opacity="0.8"/>
        <circle cx="116" cy="87" r="1" fill="white" opacity="0.8"/>

        <!-- 头盔 -->
        <path d="M 60 90 C 50 50, 100 40, 150 50 C 140 90, 100 95, 60 90 Z" fill="url(#helmet-metal)" stroke="#333" stroke-width="2"/>
        <path d="M 65 85 C 60 60, 100 50, 140 60 C 135 85, 100 88, 65 85 Z" fill="url(#metal-highlight)"/>
        
        <!-- 左角 -->
        <path d="M 60 55 C 10 0, -10 70, 45 80 Q 55 70 60 55 Z" fill="url(#horn-bone)" stroke="#7a6a5a" stroke-width="1.5"/>
        <path d="M 50 70 C 20 40, 25 30, 55 58" fill="none" stroke="#988878" stroke-width="1.5"/>
        
        <!-- 右角 -->
        <path d="M 140 55 C 190 0, 210 70, 155 80 Q 145 70 140 55 Z" fill="url(#horn-bone)" stroke="#7a6a5a" stroke-width="1.5"/>
        <path d="M 150 70 C 180 40, 175 30, 145 58" fill="none" stroke="#988878" stroke-width="1.5"/>
        
        <!-- 头盔中央装饰 -->
        <circle cx="100" cy="58" r="10" fill="#8c3a2b" stroke="#333" stroke-width="1.5"/>
        <circle cx="100" cy="58" r="4" fill="#ff6a00"/>
    </g>
</svg>

