<svg width="800" height="450" viewBox="0 0 800 450" xmlns="http://www.w3.org/2000/svg" style="font-family: Arial, 'PingFang SC', 'Microsoft YaHei', sans-serif; background-color: #0f172a;">

<!--
封面设计说明:

背景: 使用了深蓝色到更深蓝色的线性渐变，营造出科技感和专业感。

装饰元素: 抽象的、类似电路板或神经网络的线条和节点，使用明亮的青色和蓝色，象征着代码、AI和连接。

标题: 白色的主标题 "当前主流的MCP工具综述" 放置在中心，字体清晰、现代，易于阅读。
-->

<defs>
<linearGradient id="backgroundGradient" x1="0%" y1="0%" x2="100%" y2="100%">
<stop offset="0%" style="stop-color:#0f172a;" />
<stop offset="100%" style="stop-color:#020617;" />
</linearGradient>

<radialGradient id="glowGradient" cx="50%" cy="50%" r="50%" fx="50%" fy="50%">
    <stop offset="0%" style="stop-color:#38bdf8; stop-opacity:0.3" />
    <stop offset="100%" style="stop-color:#0f172a; stop-opacity:0" />
</radialGradient>

</defs>

<!-- 背景 -->

<rect width="100%" height="100%" fill="url(#backgroundGradient)" />
<rect width="100%" height="100%" fill="url(#glowGradient)" />

<!-- 抽象的背景网络线条 -->

<g id="network-lines" opacity="0.4">
<path d="M 50 50 L 200 150 L 150 300 L 50 400" stroke="#1e40af" stroke-width="1" fill="none" />
<path d="M 750 50 L 600 150 L 650 300 L 750 400" stroke="#1e40af" stroke-width="1" fill="none" />
<path d="M 100 225 L 700 225" stroke="#1e40af" stroke-width="1.5" fill="none" />
<path d="M 400 50 L 400 400" stroke="#1e40af" stroke-width="0.5" fill="none" />
<path d="M 250 50 L 550 400" stroke="#1e40af" stroke-width="0.5" fill="none" />
<path d="M 550 50 L 250 400" stroke="#1e40af" stroke-width="0.5" fill="none" />
</g>

<!-- 网络节点 -->

<g id="network-nodes" fill="#38bdf8">
<circle cx="200" cy="150" r="4" />
<circle cx="600" cy="150" r="4" />
<circle cx="150" cy="300" r="3" />
<circle cx="650" cy="300" r="3" />
<circle cx="400" cy="225" r="5" />
<circle cx="100" cy="225" r="3" />
<circle cx="700" cy="225" r="3" />
</g>

<!-- 标题文本 -->

<text x="50%" y="48%"
font-size="42"
font-weight="bold"
fill="white"
text-anchor="middle"
dominant-baseline="middle">
当前主流的MCP工具综述
</text>

<!-- 装饰性下划线 -->

<rect x="35%" y="58%" width="30%" height="2.5" fill="#38bdf8" rx="1.25" />

</svg>